<svg width="66" height="48" viewBox="0 0 66 48" fill="none" xmlns="http://www.w3.org/2000/svg">
<path d="M50.5 42.9583C52.9208 42.9583 54.875 41.0041 54.875 38.5833C54.875 36.1625 52.9208 34.2083 50.5 34.2083C48.0791 34.2083 46.125 36.1625 46.125 38.5833C46.125 41.0041 48.0791 42.9583 50.5 42.9583ZM54.875 16.7083H47.5833V24H60.5916L54.875 16.7083ZM15.5 42.9583C17.9208 42.9583 19.875 41.0041 19.875 38.5833C19.875 36.1625 17.9208 34.2083 15.5 34.2083C13.0791 34.2083 11.125 36.1625 11.125 38.5833C11.125 41.0041 13.0791 42.9583 15.5 42.9583ZM56.3333 12.3333L65.0833 24V38.5833H59.25C59.25 43.425 55.3416 47.3333 50.5 47.3333C45.6583 47.3333 41.75 43.425 41.75 38.5833H24.25C24.25 43.425 20.3416 47.3333 15.5 47.3333C10.6583 47.3333 6.74996 43.425 6.74996 38.5833H0.916626V6.49996C0.916626 3.26246 3.51246 0.666626 6.74996 0.666626H47.5833V12.3333H56.3333ZM6.74996 6.49996V32.75H8.96663C10.5708 30.9708 12.9041 29.8333 15.5 29.8333C18.0958 29.8333 20.4291 30.9708 22.0333 32.75H41.75V6.49996H6.74996ZM27.1666 9.41663L37.375 19.625L27.1666 29.8333V22.5416H12.5833V16.7083H27.1666V9.41663Z" fill="#F8C818"/>
</svg>
