<svg width="54" height="62" viewBox="0 0 54 62" fill="none" xmlns="http://www.w3.org/2000/svg">
<path d="M3 11V50.9809" stroke="#F8C818" stroke-width="5" stroke-linecap="round"/>
<path d="M51 23V51" stroke="#F8C818" stroke-width="5" stroke-linecap="round" stroke-linejoin="round"/>
<path d="M11 3H31" stroke="#F8C818" stroke-width="5" stroke-linecap="round" stroke-linejoin="round"/>
<path d="M11 59H43" stroke="#F8C818" stroke-width="5" stroke-linecap="round"/>
<path d="M51 51C51.0218 54.9954 47 59 43 59" stroke="#F8C818" stroke-width="5" stroke-linecap="round" stroke-linejoin="round"/>
<path d="M3 51C3 55 7 59 11 59" stroke="#F8C818" stroke-width="5" stroke-linecap="round" stroke-linejoin="round"/>
<path d="M3 10.9941C3 6.99994 7 3.08903 11 2.99995" stroke="#F8C818" stroke-width="5" stroke-linecap="round" stroke-linejoin="round"/>
<path d="M50.9781 23.0179L31 3" stroke="#F8C818" stroke-width="5" stroke-linecap="round" stroke-linejoin="round"/>
<path d="M31 15C31.0123 18.9782 35.0161 23 39 23" stroke="#F8C818" stroke-width="5" stroke-linecap="round" stroke-linejoin="round"/>
<path d="M31 15V3" stroke="#F8C818" stroke-width="5" stroke-linecap="round" stroke-linejoin="round"/>
<path d="M39 23H51" stroke="#F8C818" stroke-width="5" stroke-linecap="round" stroke-linejoin="round"/>
<path d="M11 51H23" stroke="#F8C818" stroke-width="5" stroke-linecap="round" stroke-linejoin="round"/>
<path d="M11 43H31" stroke="#F8C818" stroke-width="5" stroke-linecap="round" stroke-linejoin="round"/>
<path d="M11 35H23" stroke="#F8C818" stroke-width="5" stroke-linecap="round" stroke-linejoin="round"/>
</svg>
