<svg width="43" height="64" viewBox="0 0 43 64" fill="none" xmlns="http://www.w3.org/2000/svg">
<path d="M37.4687 26.2C37.4079 26.1391 37.3775 26.0783 37.3167 25.987C36.1608 24.4054 34.5183 24.375 34.5183 24.375H8.48166C8.48166 24.375 6.83916 24.4054 5.68333 26.0175C5.6225 26.0783 5.59208 26.1391 5.53124 26.2C5.31833 26.5345 5.10541 26.93 4.95333 27.4166C4.28416 29.4241 2.70249 34.1691 0.208328 41.682V61.4529C0.208328 62.8216 1.27291 63.9166 2.58083 63.9166H3.91916C5.22708 63.9166 6.29166 62.8216 6.29166 61.4529V57.8333H36.7083V61.4529C36.7083 62.8216 37.7425 63.9166 39.0808 63.9166H40.4192C41.7271 63.9166 42.7917 62.8216 42.7917 61.4529V41.682C40.2975 34.1995 38.7158 29.4241 38.0467 27.4166C37.8946 26.93 37.6817 26.5345 37.4687 26.2ZM10.3371 30.4583H32.6629L33.3625 32.557L34.6704 36.5416H8.32958L10.3371 30.4583ZM36.7083 51.75H6.29166V42.625H36.7083V51.75ZM17.9412 6.12496C17.3081 4.34758 16.1414 2.8092 14.6005 1.72028C13.0597 0.631353 11.2201 0.045068 9.33333 0.041626C4.28416 0.041626 0.208328 4.11746 0.208328 9.16663C0.208328 14.1854 4.28416 18.2916 9.33333 18.2916C13.2875 18.2916 16.6637 15.7366 17.9412 12.2083H33.6667V18.2916H39.75V12.2083H42.7917V6.12496H17.9412ZM9.33333 12.2083C7.66041 12.2083 6.29166 10.8395 6.29166 9.16663C6.29166 7.49371 7.66041 6.12496 9.33333 6.12496C11.0062 6.12496 12.375 7.49371 12.375 9.16663C12.375 10.8395 11.0062 12.2083 9.33333 12.2083Z" fill="#F8C818"/>
</svg>
