<svg width="76" height="50" viewBox="0 0 76 50" fill="none" xmlns="http://www.w3.org/2000/svg">
<path d="M8.46501 29.51H12.3333M38.2567 12.9734V7.91338M64.84 32.8284H61.4483M27.2567 7.91338C26.4737 7.8532 25.7424 7.49969 25.2088 6.92356C24.6753 6.34742 24.3789 5.59112 24.3789 4.80588C24.3789 4.02063 24.6753 3.26433 25.2088 2.68819C25.7424 2.11206 26.4737 1.75856 27.2567 1.69838H49.2567C49.6848 1.66547 50.1152 1.72139 50.5207 1.86263C50.9262 2.00388 51.2982 2.22739 51.6132 2.51917C51.9283 2.81094 52.1797 3.16468 52.3516 3.55818C52.5235 3.95168 52.6122 4.37646 52.6122 4.80588C52.6122 5.23529 52.5235 5.66007 52.3516 6.05357C52.1797 6.44708 51.9283 6.80081 51.6132 7.09258C51.2982 7.38436 50.9262 7.60788 50.5207 7.74912C50.1152 7.89036 49.6848 7.94629 49.2567 7.91338H27.2567ZM12.3333 20.9117C12.3477 20.0492 12.6992 19.2267 13.3126 18.6201C13.926 18.0136 14.7524 17.6714 15.615 17.6667H18.1817L23.0583 13.5234C23.4318 13.2051 23.906 13.0297 24.3967 13.0284H52.3733C53.1246 13.0326 53.8452 13.3266 54.3849 13.8492C54.9246 14.3719 55.2417 15.0827 55.27 15.8334V19.775H58.5517C59.3216 19.7799 60.0583 20.0891 60.6011 20.6353C61.1438 21.1814 61.4484 21.9201 61.4483 22.69V45.405C61.4483 46.1733 61.1432 46.9101 60.5999 47.4533C60.0567 47.9965 59.3199 48.3017 58.5517 48.3017H33.6917C33.2607 48.3038 32.839 48.1761 32.4817 47.935L23.3333 41.5H15.615C15.1778 41.5002 14.745 41.4129 14.342 41.2434C13.939 41.0739 13.5739 40.8256 13.2682 40.5131C12.9625 40.2005 12.7223 39.8301 12.5618 39.4234C12.4012 39.0168 12.3236 38.5821 12.3333 38.145V20.9117ZM8.46501 38.8417C8.40483 39.6246 8.05133 40.356 7.47519 40.8896C6.89906 41.4231 6.14275 41.7195 5.35751 41.7195C4.57227 41.7195 3.81596 41.4231 3.23983 40.8896C2.66369 40.356 2.31019 39.6246 2.25001 38.8417V20.1967C2.2171 19.7686 2.27302 19.3382 2.41427 18.9327C2.55551 18.5272 2.77903 18.1552 3.0708 17.8402C3.36258 17.5251 3.71631 17.2737 4.10981 17.1018C4.50332 16.9299 4.9281 16.8412 5.35751 16.8412C5.78693 16.8412 6.21171 16.9299 6.60521 17.1018C6.99871 17.2737 7.35245 17.5251 7.64422 17.8402C7.93599 18.1552 8.15951 18.5272 8.30076 18.9327C8.442 19.3382 8.49792 19.7686 8.46501 20.1967V38.8417ZM64.84 21.7367C64.8448 21.1887 65.0646 20.6646 65.4521 20.2771C65.8396 19.8896 66.3637 19.6698 66.9117 19.665H68.4333C68.7643 19.6663 69.0902 19.7469 69.3837 19.9C69.6771 20.0531 69.9296 20.2743 70.12 20.545L73.365 25C73.6115 25.3558 73.7456 25.7773 73.75 26.21V39.6667C73.7543 40.118 73.6056 40.5574 73.3283 40.9134L70.12 45.1667C69.9303 45.4281 69.6825 45.6419 69.3962 45.7914C69.11 45.9409 68.7929 46.022 68.47 46.0284H66.9117C66.3637 46.0236 65.8396 45.8038 65.4521 45.4163C65.0646 45.0288 64.8448 44.5047 64.84 43.9567V21.7367Z" stroke="#F8C818" stroke-width="3" stroke-linecap="round" stroke-linejoin="round"/>
</svg>
