<svg width="57" height="51" viewBox="0 0 57 51" fill="none" xmlns="http://www.w3.org/2000/svg">
<path d="M46.2917 15.3334V10.25H41.2083V5.16671H46.2917V0.083374H51.375V5.16671H56.4583V10.25H51.375V15.3334H46.2917ZM5.62499 50.9167C4.22707 50.9167 3.0308 50.4194 2.03616 49.4247C1.03982 48.4284 0.541656 47.2313 0.541656 45.8334V15.3334C0.541656 13.9355 1.03982 12.7392 2.03616 11.7445C3.0308 10.7482 4.22707 10.25 5.62499 10.25H13.6312L18.3333 5.16671H33.5833V10.25H20.5573L15.9187 15.3334H5.62499V45.8334H46.2917V22.9584H51.375V45.8334C51.375 47.2313 50.8777 48.4284 49.883 49.4247C48.8867 50.4194 47.6896 50.9167 46.2917 50.9167H5.62499ZM25.9583 42.0209C29.1354 42.0209 31.8364 40.9093 34.0612 38.6862C36.2843 36.4614 37.3958 33.7605 37.3958 30.5834C37.3958 27.4063 36.2843 24.7053 34.0612 22.4805C31.8364 20.2574 29.1354 19.1459 25.9583 19.1459C22.7812 19.1459 20.0803 20.2574 17.8555 22.4805C15.6324 24.7053 14.5208 27.4063 14.5208 30.5834C14.5208 33.7605 15.6324 36.4614 17.8555 38.6862C20.0803 40.9093 22.7812 42.0209 25.9583 42.0209ZM25.9583 36.9375C24.1792 36.9375 22.6753 36.3233 21.4469 35.0948C20.2184 33.8664 19.6042 32.3625 19.6042 30.5834C19.6042 28.8042 20.2184 27.3004 21.4469 26.0719C22.6753 24.8434 24.1792 24.2292 25.9583 24.2292C27.7375 24.2292 29.2413 24.8434 30.4698 26.0719C31.6983 27.3004 32.3125 28.8042 32.3125 30.5834C32.3125 32.3625 31.6983 33.8664 30.4698 35.0948C29.2413 36.3233 27.7375 36.9375 25.9583 36.9375Z" fill="#F8C818"/>
</svg>
