<svg width="59" height="59" viewBox="0 0 59 59" fill="none" xmlns="http://www.w3.org/2000/svg">
<path d="M54.6212 31.2325C54.2537 30.1825 53.2562 29.5 52.075 29.5H33.2012C31.9937 29.5 31.0225 30.1825 30.6287 31.2325L26.875 42.0213V56.485C26.875 57.4825 27.715 58.375 28.7125 58.375H30.34C31.3375 58.375 32.125 57.3775 32.125 56.38V53.125H53.125V56.38C53.125 57.3775 53.9387 58.375 54.9362 58.375H56.5375C57.535 58.375 58.375 57.4825 58.375 56.485V42.0213L54.6212 31.2325ZM33.2012 32.125H52.075L54.7787 40H30.4975L33.2012 32.125ZM32.125 47.875C30.6812 47.875 29.5 46.6938 29.5 45.25C29.5 43.8063 30.6812 42.625 32.125 42.625C33.5687 42.625 34.75 43.8063 34.75 45.25C34.75 46.6938 33.5687 47.875 32.125 47.875ZM53.125 47.875C51.6812 47.875 50.5 46.6938 50.5 45.25C50.5 43.8063 51.6812 42.625 53.125 42.625C54.5687 42.625 55.75 43.8063 55.75 45.25C55.75 46.6938 54.5687 47.875 53.125 47.875ZM15.4825 36.1413L16.375 42.625L13.6187 45.4075L8.99875 37.06L0.625 32.4138L3.4075 29.5788L9.97 30.55L20.1287 20.3913L0.625 10.1275L4.3525 6.42626L28.4762 11.9913L38.6875 1.78001C40.1575 0.24439 42.7825 0.24439 44.2525 1.78001C45.8012 3.32876 45.8012 5.87501 44.2525 7.34501L34.0412 17.5563L36.1937 26.875H33.2012C30.9175 26.875 28.9487 28.1875 28.1875 30.3138L28.1087 30.4713L25.72 25.9038L15.4825 36.1413Z" fill="#F8C818"/>
</svg>
