<svg width="20" height="16" viewBox="0 0 20 16" fill="none" xmlns="http://www.w3.org/2000/svg">
<path d="M18.38 4.57L17.15 6.42C17.7432 7.60307 18.0336 8.91483 17.9952 10.2377C17.9568 11.5606 17.5908 12.8533 16.93 14H3.07005C2.21122 12.5101 1.85535 10.7831 2.05519 9.07507C2.25504 7.36701 2.99996 5.76882 4.17953 4.51743C5.3591 3.26603 6.91052 2.42804 8.60379 2.1277C10.2971 1.82735 12.042 2.08063 13.5801 2.85L15.4301 1.62C13.5465 0.412215 11.3124 -0.128996 9.08494 0.0829355C6.8575 0.294867 4.76549 1.2477 3.14354 2.78901C1.52159 4.33033 0.463412 6.37107 0.138268 8.58481C-0.186877 10.7986 0.239801 13.0574 1.35005 15C1.52456 15.3023 1.77514 15.5536 2.07688 15.7291C2.37862 15.9045 2.72102 15.9979 3.07005 16H16.92C17.2725 16.0014 17.619 15.9096 17.9246 15.734C18.2301 15.5584 18.4838 15.3052 18.66 15C19.5814 13.4039 20.0438 11.5843 19.9962 9.74195C19.9485 7.89964 19.3927 6.10632 18.39 4.56L18.38 4.57ZM8.59005 11.41C8.7758 11.596 8.99637 11.7435 9.23917 11.8441C9.48197 11.9448 9.74222 11.9966 10.0051 11.9966C10.2679 11.9966 10.5281 11.9448 10.7709 11.8441C11.0137 11.7435 11.2343 11.596 11.4201 11.41L17.08 2.92L8.59005 8.58C8.4041 8.76575 8.25658 8.98632 8.15593 9.22912C8.05528 9.47191 8.00348 9.73217 8.00348 9.995C8.00348 10.2578 8.05528 10.5181 8.15593 10.7609C8.25658 11.0037 8.4041 11.2243 8.59005 11.41Z" fill="#12348B" fill-opacity="0.68"/>
</svg>
