<svg width="16" height="16" viewBox="0 0 16 16" fill="none" xmlns="http://www.w3.org/2000/svg">
<path d="M8 8.8643e-07C7.51253 -0.000457832 7.04167 0.177134 6.67592 0.499401C6.31017 0.821668 6.07471 1.26642 6.0138 1.75007C5.95288 2.23372 6.0707 2.72297 6.34511 3.12587C6.61953 3.52876 7.03164 3.81757 7.504 3.938C7.5014 3.95857 7.50006 3.97927 7.5 4V7.5C7.5 7.63261 7.55268 7.75979 7.64645 7.85355C7.74021 7.94732 7.86739 8 8 8C8.13261 8 8.25979 7.94732 8.35355 7.85355C8.44732 7.75979 8.5 7.63261 8.5 7.5V4C8.49993 3.97927 8.4986 3.95857 8.496 3.938C8.96836 3.81757 9.38047 3.52876 9.65489 3.12587C9.9293 2.72297 10.0471 2.23372 9.9862 1.75007C9.92529 1.26642 9.68983 0.821668 9.32408 0.499401C8.95833 0.177134 8.48747 -0.000457832 8 8.8643e-07ZM7 2C7 1.73478 7.10536 1.48043 7.29289 1.29289C7.48043 1.10536 7.73478 1 8 1C8.26522 1 8.51957 1.10536 8.70711 1.29289C8.89464 1.48043 9 1.73478 9 2C9 2.26522 8.89464 2.51957 8.70711 2.70711C8.51957 2.89464 8.26522 3 8 3C7.73478 3 7.48043 2.89464 7.29289 2.70711C7.10536 2.51957 7 2.26522 7 2ZM2 2C1.73478 2 1.48043 2.10536 1.29289 2.29289C1.10536 2.48043 1 2.73478 1 3V14C1 14.2652 1.10536 14.5196 1.29289 14.7071C1.48043 14.8946 1.73478 15 2 15C2.26522 15 2.51957 14.8946 2.70711 14.7071C2.89464 14.5196 3 14.2652 3 14V10C3 9.86739 3.05268 9.74022 3.14645 9.64645C3.24021 9.55268 3.36739 9.5 3.5 9.5H6.5C6.63261 9.5 6.75979 9.55268 6.85355 9.64645C6.94732 9.74022 7 9.86739 7 10V14C7 14.2652 7.10536 14.5196 7.29289 14.7071C7.48043 14.8946 7.73478 15 8 15C8.26522 15 8.51957 14.8946 8.70711 14.7071C8.89464 14.5196 9 14.2652 9 14V10.5C9 10.3674 9.05268 10.2402 9.14645 10.1464C9.24021 10.0527 9.36739 10 9.5 10H14.5C14.6326 10 14.7598 9.94732 14.8536 9.85355C14.9473 9.75979 15 9.63261 15 9.5V3C15 2.73478 14.8946 2.48043 14.7071 2.29289C14.5196 2.10536 14.2652 2 14 2C13.7348 2 13.4804 2.10536 13.2929 2.29289C13.1054 2.48043 13 2.73478 13 3V7C13 7.13261 12.9473 7.25979 12.8536 7.35355C12.7598 7.44732 12.6326 7.5 12.5 7.5H10C9.86739 7.5 9.74021 7.44732 9.64645 7.35355C9.55268 7.25979 9.5 7.13261 9.5 7C9.5 6.86739 9.55268 6.74022 9.64645 6.64645C9.74021 6.55268 9.86739 6.5 10 6.5H12V3C12 2.46957 12.2107 1.96086 12.5858 1.58579C12.9609 1.21071 13.4696 1 14 1C14.5304 1 15.0391 1.21071 15.4142 1.58579C15.7893 1.96086 16 2.46957 16 3V9.5C16 9.89783 15.842 10.2794 15.5607 10.5607C15.2794 10.842 14.8978 11 14.5 11H10V14C10 14.5304 9.78929 15.0391 9.41421 15.4142C9.03914 15.7893 8.53043 16 8 16C7.46957 16 6.96086 15.7893 6.58579 15.4142C6.21071 15.0391 6 14.5304 6 14V10.5H4V14C4 14.5304 3.78929 15.0391 3.41421 15.4142C3.03914 15.7893 2.53043 16 2 16C1.46957 16 0.960859 15.7893 0.585786 15.4142C0.210714 15.0391 0 14.5304 0 14V3C0 2.46957 0.210714 1.96086 0.585786 1.58579C0.960859 1.21071 1.46957 1 2 1C2.53043 1 3.03914 1.21071 3.41421 1.58579C3.78929 1.96086 4 2.46957 4 3V6.5H6C6.13261 6.5 6.25979 6.55268 6.35355 6.64645C6.44732 6.74022 6.5 6.86739 6.5 7C6.5 7.13261 6.44732 7.25979 6.35355 7.35355C6.25979 7.44732 6.13261 7.5 6 7.5H3.5C3.36739 7.5 3.24021 7.44732 3.14645 7.35355C3.05268 7.25979 3 7.13261 3 7V3C3 2.73478 2.89464 2.48043 2.70711 2.29289C2.51957 2.10536 2.26522 2 2 2Z" fill="#12348B" fill-opacity="0.68"/>
</svg>
