<svg width="152" height="120" viewBox="0 0 152 120" fill="none" xmlns="http://www.w3.org/2000/svg">
<path d="M49.9 55.95C55.7333 58.5167 60.2833 62.3667 63.55 67.5C66.8167 72.6333 68.45 78.7 68.45 85.7C68.45 95.7333 65.3 103.9 59 110.2C52.7 116.267 44.65 119.3 34.85 119.3C25.05 119.3 16.8833 116.15 10.35 109.85C4.05 103.55 0.900001 95.5 0.900001 85.7C0.900001 81.0333 1.48333 76.3667 2.65 71.7C3.81667 67.0333 6.38333 60.0333 10.35 50.7L30.65 0.299985H65.3L49.9 55.95ZM132.5 55.95C138.333 58.5167 142.883 62.3667 146.15 67.5C149.417 72.6333 151.05 78.7 151.05 85.7C151.05 95.7333 147.9 103.9 141.6 110.2C135.3 116.267 127.25 119.3 117.45 119.3C107.65 119.3 99.4833 116.15 92.95 109.85C86.65 103.55 83.5 95.5 83.5 85.7C83.5 81.0333 84.0833 76.3667 85.25 71.7C86.4167 67.0333 88.9833 60.0333 92.95 50.7L113.25 0.299985H147.9L132.5 55.95Z" fill="#F8C818"/>
</svg>
