<svg width="68" height="67" viewBox="0 0 68 67" fill="none" xmlns="http://www.w3.org/2000/svg">
<g clip-path="url(#clip0_327_284)">
<path d="M52.2706 0H16.6768C8.00421 0 0.973686 7.03053 0.973686 15.7031V51.2969C0.973686 59.9695 8.00421 67 16.6768 67H52.2706C60.9432 67 67.9737 59.9695 67.9737 51.2969V15.7031C67.9737 7.03053 60.9432 0 52.2706 0Z" fill="url(#paint0_radial_327_284)"/>
<path d="M52.2706 0H16.6768C8.00421 0 0.973686 7.03053 0.973686 15.7031V51.2969C0.973686 59.9695 8.00421 67 16.6768 67H52.2706C60.9432 67 67.9737 59.9695 67.9737 51.2969V15.7031C67.9737 7.03053 60.9432 0 52.2706 0Z" fill="url(#paint1_radial_327_284)"/>
<path d="M34.476 7.32812C27.3683 7.32812 26.4761 7.35927 23.6846 7.4862C20.8983 7.61392 18.9964 8.05492 17.3324 8.70215C15.6108 9.37058 14.1507 10.2649 12.6961 11.72C11.2401 13.1749 10.3458 14.6351 9.67531 16.3559C9.02625 18.0204 8.58473 19.9231 8.45937 22.708C8.33453 25.4998 8.30181 26.3922 8.30181 33.5003C8.30181 40.6083 8.33322 41.4976 8.45989 44.2891C8.58813 47.0754 9.02913 48.9773 9.67583 50.6413C10.3448 52.3629 11.2391 53.823 12.6942 55.2776C14.1486 56.7336 15.6087 57.63 17.329 58.2984C18.9943 58.9456 20.8965 59.3866 23.6822 59.5143C26.474 59.6413 27.3654 59.6724 34.4729 59.6724C41.5814 59.6724 42.4708 59.6413 45.2623 59.5143C48.0485 59.3866 49.9525 58.9456 51.6178 58.2984C53.3386 57.63 54.7967 56.7336 56.2508 55.2776C57.7067 53.823 58.6008 52.3629 59.2715 50.6421C59.9148 48.9773 60.3566 47.0748 60.4875 44.2896C60.6128 41.4981 60.6456 40.6083 60.6456 33.5003C60.6456 26.3922 60.6128 25.5003 60.4875 22.7086C60.3566 19.9223 59.9148 18.0206 59.2715 16.3566C58.6008 14.6351 57.7067 13.1749 56.2508 11.72C54.7951 10.2643 53.3392 9.37005 51.6163 8.70241C49.9478 8.05492 48.0448 7.61366 45.2586 7.4862C42.4668 7.35927 41.578 7.32812 34.4679 7.32812H34.476ZM32.1282 12.0446C32.8251 12.0435 33.6027 12.0446 34.476 12.0446C41.4642 12.0446 42.2923 12.0697 45.0518 12.195C47.6036 12.3118 48.9886 12.7381 49.9112 13.0964C51.1326 13.5706 52.0033 14.1378 52.9188 15.0541C53.8349 15.9701 54.4017 16.8424 54.8773 18.0638C55.2356 18.9851 55.6624 20.3701 55.7786 22.9219C55.904 25.6809 55.9312 26.5095 55.9312 33.4942C55.9312 40.479 55.904 41.3079 55.7786 44.0666C55.6619 46.6184 55.2356 48.0034 54.8773 48.9249C54.403 50.1464 53.8349 51.0161 52.9188 51.9315C52.0028 52.8476 51.1331 53.4144 49.9112 53.8889C48.9897 54.2488 47.6036 54.6741 45.0518 54.7908C42.2928 54.9162 41.4642 54.9434 34.476 54.9434C27.4876 54.9434 26.6593 54.9162 23.9005 54.7908C21.3488 54.6731 19.9637 54.2467 19.0404 53.8884C17.8192 53.4139 16.9466 52.847 16.0306 51.931C15.1146 51.015 14.5477 50.1448 14.0722 48.9228C13.7139 48.0013 13.287 46.6163 13.1708 44.0645C13.0455 41.3055 13.0203 40.4769 13.0203 33.4877C13.0203 26.4988 13.0455 25.6743 13.1708 22.9153C13.2876 20.3636 13.7139 18.9785 14.0722 18.056C14.5467 16.8345 15.1146 15.9622 16.0309 15.0462C16.9469 14.1302 17.8192 13.5631 19.0407 13.0878C19.9632 12.7279 21.3488 12.3026 23.9005 12.1854C26.3149 12.0762 27.2505 12.0435 32.1282 12.038V12.0446ZM48.4466 16.3901C46.7127 16.3901 45.306 17.7956 45.306 19.5297C45.306 21.2636 46.7127 22.6703 48.4466 22.6703C50.1805 22.6703 51.5872 21.2636 51.5872 19.5297C51.5872 17.7958 50.1805 16.3891 48.4466 16.3891V16.3901ZM34.476 20.0597C27.0537 20.0597 21.0357 26.0777 21.0357 33.5003C21.0357 40.9229 27.0537 46.938 34.476 46.938C41.8986 46.938 47.9145 40.9229 47.9145 33.5003C47.9145 26.0779 41.8981 20.0597 34.4755 20.0597H34.476ZM34.476 24.7761C39.294 24.7761 43.2002 28.6818 43.2002 33.5003C43.2002 38.3182 39.294 42.2244 34.476 42.2244C29.6578 42.2244 25.7522 38.3182 25.7522 33.5003C25.7522 28.6818 29.6578 24.7761 34.476 24.7761Z" fill="white"/>
</g>
<defs>
<radialGradient id="paint0_radial_327_284" cx="0" cy="0" r="1" gradientUnits="userSpaceOnUse" gradientTransform="translate(18.7706 72.1603) rotate(-90) scale(66.402 61.7591)">
<stop stop-color="#FFDD55"/>
<stop offset="0.1" stop-color="#FFDD55"/>
<stop offset="0.5" stop-color="#FF543E"/>
<stop offset="1" stop-color="#C837AB"/>
</radialGradient>
<radialGradient id="paint1_radial_327_284" cx="0" cy="0" r="1" gradientUnits="userSpaceOnUse" gradientTransform="translate(-10.2491 4.82635) rotate(78.681) scale(29.682 122.35)">
<stop stop-color="#3771C8"/>
<stop offset="0.128" stop-color="#3771C8"/>
<stop offset="1" stop-color="#6600FF" stop-opacity="0"/>
</radialGradient>
<clipPath id="clip0_327_284">
<rect width="67" height="67" fill="white" transform="translate(0.973686)"/>
</clipPath>
</defs>
</svg>
