<svg width="85" height="84" viewBox="0 0 85 84" fill="none" xmlns="http://www.w3.org/2000/svg">
<path d="M42.0266 42C43.9516 42 45.6001 41.314 46.9721 39.942C48.3418 38.5723 49.0266 36.925 49.0266 35C49.0266 33.075 48.3418 31.4265 46.9721 30.0545C45.6001 28.6848 43.9516 28 42.0266 28C40.1016 28 38.4543 28.6848 37.0846 30.0545C35.7126 31.4265 35.0266 33.075 35.0266 35C35.0266 36.925 35.7126 38.5723 37.0846 39.942C38.4543 41.314 40.1016 42 42.0266 42ZM42.0266 67.725C49.1433 61.1917 54.4224 55.2557 57.8641 49.917C61.3058 44.5807 63.0266 39.8417 63.0266 35.7C63.0266 29.3417 60.9989 24.1348 56.9436 20.0795C52.8906 16.0265 47.9183 14 42.0266 14C36.1349 14 31.1614 16.0265 27.1061 20.0795C23.0531 24.1348 21.0266 29.3417 21.0266 35.7C21.0266 39.8417 22.7474 44.5807 26.1891 49.917C29.6308 55.2557 34.9099 61.1917 42.0266 67.725ZM42.0266 77C32.6349 69.0083 25.6209 61.5848 20.9846 54.7295C16.3459 47.8765 14.0266 41.5333 14.0266 35.7C14.0266 26.95 16.8418 19.9792 22.4721 14.7875C28.1001 9.59583 34.6183 7 42.0266 7C49.4349 7 55.9531 9.59583 61.5811 14.7875C67.2114 19.9792 70.0266 26.95 70.0266 35.7C70.0266 41.5333 67.7084 47.8765 63.0721 54.7295C58.4334 61.5848 51.4183 69.0083 42.0266 77Z" fill="#F8C818"/>
</svg>
