<svg width="68" height="67" viewBox="0 0 68 67" fill="none" xmlns="http://www.w3.org/2000/svg">
<g clip-path="url(#clip0_327_281)">
<path d="M67.7105 33.5C67.7105 14.9986 52.712 0 34.2105 0C15.7091 0 0.710541 14.9983 0.710541 33.5C0.710541 50.2207 12.9611 64.08 28.9762 66.593V43.1836H20.4703V33.5H28.9762V26.1195C28.9762 17.7236 33.9776 13.0859 41.6295 13.0859C45.2949 13.0859 49.1285 13.7402 49.1285 13.7402V21.9844H44.9044C40.7425 21.9844 39.4449 24.5667 39.4449 27.2161V33.5H48.7359L47.2507 43.1836H39.4449V66.593C55.46 64.08 67.7105 50.2209 67.7105 33.5Z" fill="#1877F2"/>
<path d="M47.2507 43.1836L48.7359 33.5H39.4449V27.2161C39.4449 24.5665 40.7428 21.9844 44.9044 21.9844H49.1285V13.7402C49.1285 13.7402 45.2949 13.0859 41.6295 13.0859C33.9776 13.0859 28.9762 17.7236 28.9762 26.1195V33.5H20.4703V43.1836H28.9762V66.593C30.7077 66.8644 32.4578 67.0005 34.2105 67C35.9633 67.0005 37.7133 66.8645 39.4449 66.593V43.1836H47.2507Z" fill="white"/>
</g>
<defs>
<clipPath id="clip0_327_281">
<rect width="67" height="67" fill="white" transform="translate(0.710541)"/>
</clipPath>
</defs>
</svg>
