<svg width="67" height="67" viewBox="0 0 67 67" fill="none" xmlns="http://www.w3.org/2000/svg">
<g clip-path="url(#clip0_327_289)">
<path d="M33.5 0C24.6173 0 16.0905 3.53163 9.81445 9.81184C3.53196 16.0945 0.00174027 24.6151 0 33.5C0 42.3812 3.5332 50.908 9.81445 57.1882C16.0905 63.4684 24.6173 67 33.5 67C42.3827 67 50.9095 63.4684 57.1855 57.1882C63.4668 50.908 67 42.3812 67 33.5C67 24.6188 63.4668 16.092 57.1855 9.81184C50.9095 3.53163 42.3827 0 33.5 0Z" fill="url(#paint0_linear_327_289)"/>
<path d="M15.164 33.1461C24.9313 28.8916 31.4429 26.0865 34.6987 24.7313C44.0054 20.8616 45.9369 20.1895 47.1983 20.1667C47.4758 20.1623 48.0934 20.2308 48.4965 20.5567C48.8315 20.8315 48.9257 21.2031 48.9728 21.464C49.0147 21.7247 49.0723 22.3188 49.0252 22.7826C48.5227 28.0798 46.3399 40.9343 45.2302 46.8675C44.7644 49.3779 43.8379 50.2196 42.9428 50.3018C40.9956 50.4808 39.5195 49.0162 37.6352 47.7814C34.6882 45.8484 33.0237 44.6455 30.1605 42.7596C26.8523 40.58 28.9984 39.3818 30.8828 37.4242C31.3748 36.9117 39.9487 29.1151 40.111 28.408C40.1319 28.3195 40.1529 27.9897 39.954 27.816C39.7603 27.6417 39.4724 27.7013 39.263 27.7484C38.9647 27.8154 34.259 30.9288 25.1302 37.0881C23.7955 38.0062 22.5863 38.4538 21.4976 38.4302C20.3041 38.4046 18.001 37.7539 16.2894 37.1981C14.1956 36.516 12.5259 36.1554 12.6724 34.997C12.7457 34.394 13.578 33.7769 15.164 33.1461Z" fill="white"/>
</g>
<defs>
<linearGradient id="paint0_linear_327_289" x1="33.5" y1="0" x2="33.5" y2="67" gradientUnits="userSpaceOnUse">
<stop stop-color="#2AABEE"/>
<stop offset="1" stop-color="#229ED9"/>
</linearGradient>
<clipPath id="clip0_327_289">
<rect width="67" height="67" fill="white"/>
</clipPath>
</defs>
</svg>
