<svg width="83" height="86" viewBox="0 0 83 86" fill="none" xmlns="http://www.w3.org/2000/svg">
<path d="M17.2917 14.3335H31.125L38.0417 32.2502L29.3958 37.6252C33.0996 45.4065 39.1776 51.7042 46.6875 55.5418L51.875 46.5835L69.1667 53.7502V68.0835C69.1667 69.9842 68.4379 71.8071 67.1408 73.1511C65.8437 74.4951 64.0844 75.2502 62.25 75.2502C48.76 74.4007 36.0364 68.4651 26.4799 58.5632C16.9234 48.6613 11.1948 35.4778 10.375 21.5002C10.375 19.5994 11.1037 17.7766 12.4008 16.4326C13.698 15.0886 15.4573 14.3335 17.2917 14.3335" stroke="#F8C818" stroke-width="4" stroke-linecap="round" stroke-linejoin="round"/>
<path d="M51.875 25.0835C53.7094 25.0835 55.4687 25.8386 56.7658 27.1826C58.0629 28.5266 58.7917 30.3494 58.7917 32.2502" stroke="#F8C818" stroke-width="4" stroke-linecap="round" stroke-linejoin="round"/>
<path d="M51.875 10.75C57.3782 10.75 62.6561 13.0152 66.5475 17.0472C70.4388 21.0792 72.625 26.5478 72.625 32.25" stroke="#F8C818" stroke-width="4" stroke-linecap="round" stroke-linejoin="round"/>
</svg>
