<svg width="55" height="55" viewBox="0 0 55 55" fill="none" xmlns="http://www.w3.org/2000/svg">
<path d="M25.9532 35.1197C26.3733 35.5398 26.8989 35.74 27.5298 35.7201C28.1593 35.7018 28.6841 35.4826 29.1042 35.0624C29.5243 34.6423 29.7344 34.1076 29.7344 33.4583C29.7344 32.8089 29.5243 32.2742 29.1042 31.8541L27.0417 29.7916H34.4323C35.0816 29.7916 35.6164 29.5716 36.0365 29.1316C36.4566 28.6931 36.6667 28.1492 36.6667 27.4999C36.6667 26.8506 36.4475 26.306 36.009 25.866C35.569 25.4275 35.0243 25.2083 34.375 25.2083H27.0417L29.1615 23.0885C29.5816 22.6683 29.7825 22.1428 29.7642 21.5118C29.7443 20.8823 29.5243 20.3576 29.1042 19.9374C28.6841 19.5173 28.1493 19.3072 27.5 19.3072C26.8507 19.3072 26.316 19.5173 25.8959 19.9374L19.9375 25.8958C19.4792 26.3541 19.25 26.8888 19.25 27.4999C19.25 28.111 19.4792 28.6458 19.9375 29.1041L25.9532 35.1197ZM27.5 50.4166C24.3299 50.4166 21.3507 49.8146 18.5625 48.6107C15.7743 47.4084 13.349 45.776 11.2865 43.7135C9.224 41.651 7.59157 39.2256 6.38921 36.4374C5.18532 33.6492 4.58337 30.6701 4.58337 27.4999C4.58337 24.3298 5.18532 21.3506 6.38921 18.5624C7.59157 15.7742 9.224 13.3489 11.2865 11.2864C13.349 9.22388 15.7743 7.59068 18.5625 6.38679C21.3507 5.18443 24.3299 4.58325 27.5 4.58325C30.6702 4.58325 33.6493 5.18443 36.4375 6.38679C39.2257 7.59068 41.6511 9.22388 43.7136 11.2864C45.7761 13.3489 47.4085 15.7742 48.6109 18.5624C49.8148 21.3506 50.4167 24.3298 50.4167 27.4999C50.4167 30.6701 49.8148 33.6492 48.6109 36.4374C47.4085 39.2256 45.7761 41.651 43.7136 43.7135C41.6511 45.776 39.2257 47.4084 36.4375 48.6107C33.6493 49.8146 30.6702 50.4166 27.5 50.4166ZM27.5 45.8332C32.5799 45.8332 36.9058 44.048 40.4777 40.4776C44.0482 36.9057 45.8334 32.5798 45.8334 27.4999C45.8334 22.4201 44.0482 18.0942 40.4777 14.5222C36.9058 10.9518 32.5799 9.16658 27.5 9.16658C22.4202 9.16658 18.095 10.9518 14.5246 14.5222C10.9527 18.0942 9.16671 22.4201 9.16671 27.4999C9.16671 32.5798 10.9527 36.9057 14.5246 40.4776C18.095 44.048 22.4202 45.8332 27.5 45.8332Z" fill="#F8C818"/>
</svg>
