<svg width="62" height="63" viewBox="0 0 62 63" fill="none" xmlns="http://www.w3.org/2000/svg">
<g clip-path="url(#clip0_327_259)">
<path d="M1.32307 31.123C1.32162 36.4162 2.69337 41.5846 5.30173 46.1402L1.07362 61.7051L16.872 57.5285C21.2416 59.9269 26.1375 61.1837 31.1126 61.184H31.1257C47.5496 61.184 60.9191 47.7091 60.9261 31.1466C60.9293 23.121 57.8322 15.5742 52.2052 9.89635C46.5792 4.21903 39.0968 1.09076 31.1245 1.0871C14.6986 1.0871 1.33009 14.5613 1.32331 31.123" fill="url(#paint0_linear_327_259)"/>
<path d="M0.259141 31.1132C0.257445 36.5969 1.67836 41.9502 4.37972 46.6688L0 62.7917L16.3649 58.4655C20.8739 60.9442 25.9506 62.2511 31.1165 62.253H31.1298C48.143 62.253 61.9927 48.2934 62 31.1381C62.0029 22.8241 58.7944 15.006 52.9664 9.12474C47.1377 3.24426 39.3877 0.0034186 31.1298 0C14.1137 0 0.265922 13.9577 0.259141 31.1132ZM10.0048 45.8562L9.39373 44.8782C6.82509 40.7603 5.46932 36.0016 5.47126 31.1152C5.47683 16.8559 16.9865 5.25488 31.1395 5.25488C37.9934 5.25781 44.4346 7.95167 49.2793 12.8393C54.1238 17.7274 56.7896 24.2252 56.7879 31.1362C56.7816 45.3954 45.2716 56.9979 31.1298 56.9979H31.1196C26.5149 56.9955 21.9989 55.7486 18.0604 53.3925L17.1231 52.8321L7.41191 55.3992L10.0048 45.8559V45.8562Z" fill="url(#paint1_linear_327_259)"/>
<path d="M23.4142 18.1059C22.8363 16.811 22.2282 16.7849 21.6787 16.7622C21.2287 16.7426 20.7143 16.7441 20.2004 16.7441C19.686 16.7441 18.8502 16.9392 18.1437 17.7169C17.4365 18.4954 15.4438 20.3766 15.4438 24.2028C15.4438 28.0292 18.2079 31.7269 18.5932 32.2463C18.979 32.7647 23.9293 40.8677 31.7694 43.985C38.2852 46.5756 39.6112 46.0603 41.0254 45.9304C42.4397 45.801 45.5891 44.0497 46.2317 42.2337C46.8747 40.4179 46.8747 38.8615 46.6819 38.5362C46.4891 38.2122 45.9747 38.0176 45.2033 37.6288C44.4317 37.2399 40.6395 35.3584 39.9326 35.0988C39.2254 34.8395 38.7113 34.7101 38.1968 35.4888C37.6824 36.2663 36.2053 38.0176 35.7551 38.5362C35.3054 39.0561 34.8551 39.1208 34.084 38.7318C33.3122 38.3416 30.828 37.5214 27.8809 34.8722C25.5878 32.8108 24.0398 30.2652 23.5898 29.4865C23.1398 28.709 23.5416 28.2875 23.9284 27.9C24.2749 27.5515 24.7 26.9919 25.086 26.5379C25.4706 26.0837 25.599 25.7597 25.8562 25.241C26.1136 24.7219 25.9848 24.2677 25.7922 23.8787C25.599 23.4897 24.1001 19.6436 23.4142 18.1059Z" fill="white"/>
</g>
<defs>
<linearGradient id="paint0_linear_327_259" x1="30.9999" y1="61.7051" x2="30.9999" y2="1.0871" gradientUnits="userSpaceOnUse">
<stop stop-color="#1FAF38"/>
<stop offset="1" stop-color="#60D669"/>
</linearGradient>
<linearGradient id="paint1_linear_327_259" x1="31" y1="62.7917" x2="31" y2="0" gradientUnits="userSpaceOnUse">
<stop stop-color="#F9F9F9"/>
<stop offset="1" stop-color="white"/>
</linearGradient>
<clipPath id="clip0_327_259">
<rect width="62" height="63" fill="white"/>
</clipPath>
</defs>
</svg>
